<svg width="30" height="30" viewBox="0 0 30 30" xmlns="http://www.w3.org/2000/svg">
    <defs>
        <linearGradient x1="50%" y1="0%" x2="50%" y2="100%" id="g022nei5sa">
            <stop stop-color="#FF6898" offset="0%"/>
            <stop stop-color="#FE3473" offset="100%"/>
        </linearGradient>
        <linearGradient x1="50%" y1="0%" x2="50%" y2="100%" id="t3hxxdnuab">
            <stop stop-color="#FE7FA8" offset="0%"/>
            <stop stop-color="#FF5990" offset="100%"/>
        </linearGradient>
    </defs>
    <g fill="none" fill-rule="evenodd">
        <g>
            <rect fill="url(#g022nei5sa)" fill-rule="nonzero" width="30" height="30" rx="15"/>
            <path d="M8.476 9.05c1.638-.08 3.812-.12 6.524-.12 2.71 0 4.886.04 6.524.12a3 3 0 0 1 2.851 3v8.625a3 3 0 0 1-2.743 2.992c-1.795.152-4.047.228-6.754.228-2.627 0-4.796-.072-6.504-.214a3 3 0 0 1-2.749-2.992v-8.64a3 3 0 0 1 2.851-3v.001z" stroke="url(#t3hxxdnuab)" stroke-width="2.25"/>
            <path d="m12.639 14.25-3.264 1.251m7.764-1.251 3.263 1.251" stroke-linecap="round" stroke="#FF6E9F" stroke-width="1.875"/>
            <path d="M13.014 8.525 10.968 5.86m6.325 2.666 2.046-2.666" stroke-linecap="round" stroke="#FE80A9" stroke-width="2.25"/>
            <path d="M12.375 17.751c.384.991.831 1.488 1.341 1.488.511 0 .958-.497 1.343-1.488.336.991.763 1.488 1.28 1.488s1.03-.497 1.539-1.488" stroke="#FE6F9D" stroke-width=".75" stroke-linecap="round" stroke-linejoin="round"/>
        </g>
        <path d="M4.942 9.75c-.064 2.149.038 4.3.306 6.433 1.168.01 1.967.064 2.4.164 1.371.313 2.11.734 2.22 1.522.13.925-1.03 1.718-3.482 2.381h-2.15c-.097-1.762-.212-3.182-.348-4.257-.14-1.098-.435-2.939-.888-5.522a9.13 9.13 0 0 1 1.942-.721zm1.083 7.626a.075.075 0 0 0-.004.03c.032.353.057.626.08.818.022.193.06.47.112.828a.075.075 0 0 0 .107.053c.34-.175.598-.317.774-.429.176-.112.421-.29.735-.532a.077.077 0 0 0-.016-.127 8.93 8.93 0 0 0-.805-.398 9.244 9.244 0 0 0-.888-.29.077.077 0 0 0-.095.047zM17.08 9.75c-.065 2.149.037 4.3.305 6.433 1.168.01 1.967.064 2.4.164 1.371.313 2.109.734 2.22 1.522.13.925-1.03 1.718-3.482 2.381H16.37c-.095-1.762-.21-3.182-.346-4.257-.139-1.098-.435-2.939-.888-5.522a9.13 9.13 0 0 1 1.943-.721zm1.082 7.626a.075.075 0 0 0-.003.03c.03.353.056.626.079.818.022.193.06.47.112.828a.075.075 0 0 0 .108.053c.34-.175.597-.317.773-.429.176-.112.421-.29.735-.532a.077.077 0 0 0-.016-.127 8.93 8.93 0 0 0-.805-.398 9.244 9.244 0 0 0-.888-.29.077.077 0 0 0-.095.047zM9.718 15.32l1.367-.158c.121.862.214 1.553.276 2.069.064.517.146 1.322.249 2.417h-1.032l-.411-2.23-.45-2.098zm12.14 0 1.364-.158c.122.862.214 1.553.278 2.069.063.517.145 1.322.248 2.417h-1.032l-.411-2.23-.449-2.098h.001zm-12.57-2.204.69-.085c.055.289.097.548.124.78.03.231.062.572.097 1.023H9.66a12.514 12.514 0 0 0-.145-.902c-.064-.275-.14-.546-.228-.815zm12.137 0 .691-.085c.055.289.097.548.125.78.029.231.06.572.096 1.023h-.539a12.514 12.514 0 0 0-.144-.902c-.065-.275-.141-.546-.229-.815zm-11.223-.085h.682c.032.307.053.576.06.803.008.23.008.563 0 1h-.595c-.01-.418-.026-.73-.043-.939-.026-.289-.061-.577-.104-.864zm12.137 0h.682c.033.307.053.576.062.803.007.23.007.563 0 1h-.596c-.01-.418-.026-.73-.043-.939-.026-.289-.06-.577-.104-.864zM11.237 11l1.318-.195.609 8.344H12.2L11.237 11zm12.138 0 1.318-.195.609 8.344h-.963L23.375 11zm-9.829 4.292h1.316v4.354h-.97l-.346-4.354zm12.138 0H27v4.354h-.97l-.346-4.354zM13.387 13.03h.671v1.803h-.608l-.063-1.803zm12.139 0h.67v1.803h-.608l-.062-1.803zm-11.322 0h.658v1.803h-.6l-.058-1.803zm12.138 0H27v1.803h-.6l-.058-1.803z" fill="#FFF" fill-rule="nonzero"/>
    </g>
</svg>
