<svg width="30" height="30" viewBox="0 0 30 30" xmlns="http://www.w3.org/2000/svg">
    <g fill-rule="nonzero" fill="none">
        <rect fill="#1DA0F1" width="30" height="30" rx="15"/>
        <path d="M14.94 13.08c-.831-4.128 4.056-6.387 6.894-3.594a6.73 6.73 0 0 0 1.24-.321c.374-.14.813-.348 1.317-.627-.118.438-.317.84-.596 1.207-.278.365-.66.69-1.142.975.803-.054 1.548-.3 2.285-.579-.482.668-1.038 1.337-2.01 2.02 0 5.056-2.088 8.584-6.26 10.584C12.798 24.6 8.992 24.4 5.25 22.142c1.143.132 2.21.045 3.197-.257a9.195 9.195 0 0 0 2.767-1.404c-.858 0-1.653-.267-2.385-.801-.733-.534-1.19-1.177-1.37-1.93.365.042.694.064.988.064.294 0 .565-.045.812-.135-.966-.204-1.735-.654-2.309-1.346-.573-.693-.876-1.553-.91-2.578.349.185.653.31.91.378.257.067.554.11.89.129-.924-.65-1.484-1.45-1.684-2.408-.199-.955-.041-1.914.474-2.877 1.141 1.372 2.476 2.4 4.007 3.084 1.53.684 2.964 1.023 4.303 1.018v.001z" fill="#FFF"/>
    </g>
</svg>
