<svg width="30" height="30" viewBox="0 0 30 30" xmlns="http://www.w3.org/2000/svg">
    <g fill-rule="nonzero" fill="none">
        <rect fill="red" width="30" height="30" rx="15"/>
        <path d="m24.375 15.43-.004.218a62.174 62.174 0 0 1-.161 3.002c-.146 1.046-.444 1.773-.895 2.178-.45.406-1.168.655-2.151.75-2.893.114-5.068.172-6.52.172h-.319a134.724 134.724 0 0 1-5.457-.172c-2.205-.134-2.758-1.057-3.01-2.336a33.08 33.08 0 0 1-.233-4.073v.037a33.08 33.08 0 0 1 .232-4.073c.253-1.28.806-2.202 3.011-2.335 2.226-.108 4.045-.164 5.457-.172l.318-.001c1.454 0 3.627.058 6.52.172.985.095 1.701.344 2.152.75.45.405.75 1.132.895 2.178.094 1.308.147 2.309.16 3.002l.004.217v.487h.001z" fill="#FFF"/>
        <path fill="red" d="m12.75 12.375 4.875 2.77L12.75 18z"/>
    </g>
</svg>
