<svg width="30" height="30" viewBox="0 0 30 30" xmlns="http://www.w3.org/2000/svg">
    <defs>
        <linearGradient x1="68.004%" y1="31.287%" x2="9.49%" y2="94.072%" id="ddfv3avsja">
            <stop stop-color="#FF0469" offset="0%"/>
            <stop stop-color="#FF1530" offset="100%"/>
        </linearGradient>
    </defs>
    <g fill-rule="nonzero" fill="none">
        <rect fill="url(#ddfv3avsja)" width="30" height="30" rx="15"/>
        <path d="M15.286 5.625c5.02 0 9.089 4.02 9.089 8.979 0 4.958-4.07 8.978-9.089 8.978-.38 0-.874-.05-1.485-.148l-.269-.045a1.057 1.057 0 0 1-.85-.815l-.02-.128c-.312-3.288-1.75-4.941-4.812-5.449l-.282-.043a1.503 1.503 0 0 1-1.282-1.281 7.96 7.96 0 0 1-.09-1.07c0-4.958 4.07-8.978 9.09-8.978zm-2.328 6.507c-.199.859-.3 1.738-.301 2.62 0 .851.096 1.707.29 2.569.133.606.734.989 1.34.855l.043-.011c1.024-.268 1.928-.624 2.713-1.067a8.655 8.655 0 0 0 2.011-1.557 1.123 1.123 0 0 0-.006-1.559 9.736 9.736 0 0 0-2.173-1.686 9.767 9.767 0 0 0-2.163-.888l-.397-.104a1.125 1.125 0 0 0-1.357.828z" fill="#FFF"/>
    </g>
</svg>
