<svg width="30" height="30" viewBox="0 0 30 30" xmlns="http://www.w3.org/2000/svg">
    <g fill-rule="nonzero" fill="none">
        <rect fill="#000" width="30" height="30" rx="15"/>
        <path d="M18.375 5.625A4.125 4.125 0 0 0 22.5 9.75v3.375a7.465 7.465 0 0 1-4.125-1.235V18a5.818 5.818 0 0 1-5.813 5.625 5.813 5.813 0 1 1 .938-11.55v3.486A2.437 2.437 0 1 0 14.992 18H15V5.625h3.375z" fill="#00F2EA"/>
        <path d="M19.125 6.375A4.125 4.125 0 0 0 23.25 10.5v3.375a7.465 7.465 0 0 1-4.125-1.235v6.11a5.818 5.818 0 0 1-5.813 5.625 5.813 5.813 0 1 1 .938-11.55v3.486a2.437 2.437 0 1 0 1.492 2.439h.008V6.375h3.375z" fill="#F1004B"/>
        <path d="m19.982 8.893.086.106a4.122 4.122 0 0 0 2.43 1.432l.002 2.694a7.465 7.465 0 0 1-4.125-1.235V18a5.818 5.818 0 0 1-9.531 4.28 5.812 5.812 0 0 1 4.467-9.53l.189.004v2.807a2.437 2.437 0 0 0-2.246 4.308 2.438 2.438 0 0 0 4.489-1.12l.007-12.373h2.694a4.129 4.129 0 0 0 1.538 2.518v-.001z" fill="#FFF"/>
    </g>
</svg>
