<?xml version="1.0" encoding="UTF-8"?>
<svg width="123px" height="30px" viewBox="0 0 123 30" version="1.1" xmlns="http://www.w3.org/2000/svg" xmlns:xlink="http://www.w3.org/1999/xlink">
    <title>编组 49</title>
    <defs>
        <linearGradient x1="33.1360076%" y1="0%" x2="1085.66065%" y2="50%" id="linearGradient-1">
            <stop stop-color="#FF7E3B" offset="0%"></stop>
            <stop stop-color="#FF3B6F" offset="100%"></stop>
        </linearGradient>
        <linearGradient x1="54.5962544%" y1="0%" x2="557.246912%" y2="100%" id="linearGradient-2">
            <stop stop-color="#10162F" offset="0%"></stop>
            <stop stop-color="#FF3B6F" offset="100%"></stop>
        </linearGradient>
    </defs>
    <g id="页面-1" stroke="none" stroke-width="1" fill="none" fill-rule="evenodd">
        <g id="编组-49">
            <g id="DM_20230907102327_001">
                <g id="编组-16">
                    <path d="M18.1532416,17.3011747 L25.0378406,13.4411415 C25.2680502,13.312053 25.5508122,13.3130218 25.7800992,13.4436846 C26.0093861,13.5743473 26.1505532,13.8149614 26.1506671,14.0753034 L26.1506671,16.3317045 C26.1506671,16.5903058 26.0114671,16.8299203 25.7844938,16.9613095 L18.8998948,20.9485547 C18.6699434,21.0814869 18.3851114,21.0832929 18.1534312,20.9532879 C17.9217511,20.8232828 17.7787102,20.58138 17.7785617,20.3193295 L17.7785617,17.9353365 C17.7785617,17.6733176 17.9216283,17.4310449 18.1536283,17.3011747 L18.1532416,17.3011747 Z" id="路径" fill="#10162F" fill-rule="nonzero"></path>
                    <path d="M23.6516439,24.0764537 L23.6183875,14.6642765 L20.281068,16.0791789 L20.3564679,25.1063022 C20.3586566,25.3660075 20.5010641,25.60505 20.7305169,25.7341736 C20.9599696,25.8632973 21.2419722,25.8630898 21.4712278,25.7336288 L23.2788942,24.7121345 C23.5101208,24.581125 23.6524141,24.3384727 23.6516439,24.0760739 L23.6516439,24.0764537 Z" id="路径" fill="#10162F" fill-rule="nonzero"></path>
                    <g id="编组">
                        <g fill-rule="nonzero" id="4z3vqk4a4a-link">
                            <g fill="url(#linearGradient-1)">
                                <path d="M0.0495110517,21.8663806 L8.81945016e-06,8.32455654 C-0.00179417001,7.80920007 0.272956183,7.33101486 0.723084282,7.06610599 L12.5249225,0.119185559 C12.7907001,-0.0378014188 13.1225257,-0.0398399849 13.3902823,0.113869232 L25.9936804,7.32432759 C25.9976947,7.32222254 26.0025321,7.32230602 26.0064686,7.32454829 C26.0104051,7.32679057 26.0130138,7.3308727 26.0130138,7.33533998 L26.0006404,8.88884667 C25.9985097,9.14649985 25.8583453,9.38400114 25.6317605,9.51389483 L14.3155755,15.9998138 L14.3155755,29.4592348 L14.1543356,29.6073324 C13.6733137,30.0479349 12.9547858,30.1260662 12.3872692,29.7994797 L0.784950939,23.122173 C0.331018553,22.8608491 0.0513818031,22.3835027 0.0495110517,21.8667603 L0.0495110517,21.8663806 Z M19.4911081,6.61687636 L8.96488302,12.2616764 L8.96488302,24.9392176 L11.9337092,26.7767681 L11.9499492,13.8527771 L22.3017877,7.98393187 C22.3623163,7.94979896 22.3988934,7.88580125 22.3971035,7.81727885 C22.3951786,7.74875645 22.3551864,7.68676052 22.2928943,7.65583855 L20.1840146,6.60662344 C19.9655321,6.49786977 19.7065399,6.50170421 19.4914947,6.61687636 L19.4911081,6.61687636 Z" id="4z3vqk4a4a"></path>
                            </g>
                            <g fill="url(#linearGradient-2)">
                                <path d="M0.0495110517,21.8663806 L8.81945016e-06,8.32455654 C-0.00179417001,7.80920007 0.272956183,7.33101486 0.723084282,7.06610599 L12.5249225,0.119185559 C12.7907001,-0.0378014188 13.1225257,-0.0398399849 13.3902823,0.113869232 L25.9936804,7.32432759 C25.9976947,7.32222254 26.0025321,7.32230602 26.0064686,7.32454829 C26.0104051,7.32679057 26.0130138,7.3308727 26.0130138,7.33533998 L26.0006404,8.88884667 C25.9985097,9.14649985 25.8583453,9.38400114 25.6317605,9.51389483 L14.3155755,15.9998138 L14.3155755,29.4592348 L14.1543356,29.6073324 C13.6733137,30.0479349 12.9547858,30.1260662 12.3872692,29.7994797 L0.784950939,23.122173 C0.331018553,22.8608491 0.0513818031,22.3835027 0.0495110517,21.8667603 L0.0495110517,21.8663806 Z M19.4911081,6.61687636 L8.96488302,12.2616764 L8.96488302,24.9392176 L11.9337092,26.7767681 L11.9499492,13.8527771 L22.3017877,7.98393187 C22.3623163,7.94979896 22.3988934,7.88580125 22.3971035,7.81727885 C22.3951786,7.74875645 22.3551864,7.68676052 22.2928943,7.65583855 L20.1840146,6.60662344 C19.9655321,6.49786977 19.7065399,6.50170421 19.4914947,6.61687636 L19.4911081,6.61687636 Z" id="4z3vqk4a4a"></path>
                            </g>
                        </g>
                        <g id="Clipped" transform="translate(0.000009, 0.000000)">
                            <path d="M19.4910993,6.61687636 L8.9648742,12.2616764 L8.9648742,24.9392176 L11.9337004,26.7767681 L11.9499404,13.8527771 L22.3017788,7.98393187 C22.3623075,7.94979896 22.3988845,7.88580125 22.3970947,7.81727885 C22.3951698,7.74875645 22.3551776,7.68676052 22.2928855,7.65583855 L20.1840058,6.60662344 C19.9655233,6.49786977 19.7065311,6.50170421 19.4914859,6.61687636 L19.4910993,6.61687636 Z" id="4z3vqk4a4a-path"></path>
                            <path d="M0.0495022323,21.8663806 L0,8.32455654 C-0.00180298946,7.80920007 0.272947364,7.33101486 0.723075463,7.06610599 L12.5249137,0.119185559 C12.7906913,-0.0378014188 13.1225169,-0.0398399849 13.3902735,0.113869232 L25.9936716,7.32432759 C25.9976859,7.32222254 26.0025233,7.32230602 26.0064598,7.32454829 C26.0103963,7.32679057 26.0130049,7.3308727 26.0130049,7.33533998 L26.0006316,8.88884667 C25.9985009,9.14649985 25.8583365,9.38400114 25.6317517,9.51389483 L14.3155667,15.9998138 L14.3155667,29.4592348 L14.1543267,29.6073324 C13.6733049,30.0479349 12.954777,30.1260662 12.3872603,29.7994797 L0.78494212,23.122173 C0.331009734,22.8608491 0.0513729836,22.3835027 0.0495022323,21.8667603 L0.0495022323,21.8663806 Z" id="4z3vqk4a4a-path"></path>
                        </g>
                    </g>
                </g>
                <g id="编组" transform="translate(33.913773, 2.546848)" fill="#10162F" fill-rule="nonzero">
                    <path d="M17.0531574,15.2650735 C17.0531574,15.4739292 16.9947707,15.6383556 16.8776108,15.7575932 C16.7608374,15.8772106 16.5999841,15.9368294 16.3954375,15.9368294 L0.657719899,15.9368294 C0.452786597,15.9368294 0.292319955,15.8772106 0.17554664,15.7575932 C0.0579999911,15.6383556 0,15.4739292 0,15.2650735 L0,1.48629313 C0,1.33173991 0,1.11908683 0.0982133183,0.955040171 C0.196426637,0.790993509 0.315519952,0.659604285 0.657719899,0.659604285 L16.3954375,0.659604285 C16.6003708,0.659604285 16.7608374,0.719602833 16.8776108,0.838840452 C16.9947707,0.95845781 17.0531574,1.12250447 17.0531574,1.33173991 L17.0531574,2.02628006 C17.0531574,2.23513576 16.9947707,2.39956216 16.8776108,2.51879978 C16.7608374,2.63841714 16.5999841,2.69803595 16.3954375,2.69803595 L3.83573275,2.69803595 C3.54379946,2.69803595 3.39763948,2.84765258 3.39763948,3.14612637 L3.39763948,13.4279028 C3.39763948,13.7267563 3.54379946,13.8759932 3.83573275,13.8759932 L16.3954375,13.8759932 C16.6003708,13.8759932 16.7608374,13.935612 16.8776108,14.0552294 C16.9947707,14.1748467 17.0531574,14.3388934 17.0531574,14.5481288 L17.0531574,15.2646938 L17.0531574,15.2650735 Z M5.00075924,12.8324742 C4.5483593,12.8324742 4.33607934,12.6008342 4.365466,12.1383137 L4.95706591,4.87810976 C4.98645257,4.47482838 5.20569254,4.25837792 5.61478581,4.22875839 L15.5188643,3.89269057 C15.7234109,3.87750107 15.8842642,3.92990486 16.0010376,4.04952222 C16.1178109,4.16875984 16.1761975,4.33318624 16.1761975,4.54204194 L16.1761975,5.16936853 C16.1761975,5.60226944 15.9643042,5.8339094 15.5409043,5.86390868 L8.65823868,6.08795388 C8.38061205,6.08795388 8.22710541,6.23719078 8.19810541,6.5360443 L8.15402542,6.75629214 L8.15402542,6.8235057 C8.15402542,7.09235995 8.29283873,7.22678707 8.57046536,7.22678707 L16.0230776,7.22678707 C16.2276242,7.22678707 16.3880908,7.28640588 16.5052508,7.40602324 C16.6220241,7.52526086 16.6804108,7.68968726 16.6804108,7.89854296 L16.6804108,8.50346503 C16.6804108,8.71232073 16.6224108,8.87674713 16.5052508,8.99636449 C16.3880908,9.11560211 16.2276242,9.17560066 16.0230776,9.17560066 L15.145731,9.17560066 C14.8534111,9.17560066 14.7072511,9.32483755 14.7072511,9.62369107 L14.7072511,12.1831228 C14.7072511,12.3919785 14.6492511,12.5564049 14.5320911,12.6756425 C14.4153178,12.7952599 14.2544645,12.8548787 14.0499179,12.8548787 L11.5508916,12.8548787 C11.3463449,12.8548787 11.1858783,12.7952599 11.0687183,12.6756425 C10.951945,12.5564049 10.8935583,12.3919785 10.8935583,12.1831228 L10.8935583,9.62369107 C10.8935583,9.32483755 10.7473984,9.17560066 10.4550784,9.17560066 L8.35083872,9.17560066 C8.21937208,9.17560066 8.11342543,9.21281494 8.03299877,9.28762326 C7.95257212,9.36205184 7.90539879,9.46685943 7.89070546,9.60128655 L7.60573217,12.1831228 C7.56165218,12.6160237 7.33506555,12.8324742 6.92597227,12.8324742 L5.00037257,12.8324742 L5.00075924,12.8324742 Z M27.4270358,0.84567573 C27.3690358,0.755677909 27.4015158,0.451508057 27.5256358,0.383914757 C27.6497558,0.316321456 27.8140891,0.282524806 28.0186357,0.282524806 L31.6989285,0.282524806 C32.0790218,0.282524806 32.2688751,0.432900912 32.2688751,0.733273388 C32.2688751,0.838080977 32.2394884,0.950863057 32.1811017,1.07123989 L31.0415953,3.43624593 C30.9832086,3.55624302 30.9538219,3.6538356 30.9538219,3.72864391 C30.9538219,3.81902147 30.9905553,3.9242088 31.0632486,4.04420589 L38.1175942,15.6915189 C38.2053675,15.8267055 38.2490608,15.9542973 38.2490608,16.0746741 C38.2490608,16.1946712 38.1980208,16.2960612 38.0959408,16.3784643 C37.9934742,16.4612471 37.8473142,16.5026385 37.6574609,16.5026385 L34.963168,16.5026385 C34.597768,16.5026385 34.3348348,16.3526421 34.1743681,16.0522696 L29.3982622,7.98702183 C29.3108755,7.83702547 29.2087955,7.76183741 29.0916356,7.76183741 C28.9748622,7.76183741 28.8727823,7.84424048 28.7850089,8.00980609 L24.9075162,16.0070808 C24.7613562,16.3374526 24.5053829,16.5026385 24.1407563,16.5026385 L21.3799567,16.5026385 C21.0006368,16.5026385 20.8107835,16.3526421 20.8107835,16.0522696 C20.8107835,15.9470823 20.8397835,15.8343002 20.8981701,15.7143031 L27.6895824,1.74641342 C27.7319558,1.66230379 27.7544266,1.56987728 27.7553158,1.47604022 C27.7553158,1.34085362 27.7116224,1.22085652 27.6238491,1.11566919 L27.4266491,0.845295992 L27.4270358,0.84567573 Z M42.0070736,10.8031562 C42.0070736,10.5927815 42.0658469,10.4275957 42.1841669,10.3075986 C42.3021002,10.1872217 42.4641135,10.1272232 42.6709801,10.1272232 L48.7114859,10.1272232 C49.0065125,10.1272232 49.1542192,10.0372254 49.1542192,9.85684999 C49.1542192,9.46647969 49.3382725,9.21129599 49.7071524,9.09091916 L52.2518053,8.27979956 C52.4288987,8.23499052 52.5174453,8.14461296 52.5174453,8.00980609 C52.5174453,7.94942781 52.4880586,7.89702401 52.4288987,7.85183523 C52.3697387,7.80702619 52.2889253,7.78424193 52.1852987,7.78424193 L44.7728998,7.78424193 C44.5664199,7.78424193 44.4040199,7.72424339 44.2860866,7.60424629 C44.1681533,7.48386946 44.1089933,7.31868358 44.1089933,7.10868867 L44.1089933,6.31997358 C44.1089933,6.10959893 44.1681533,5.94441306 44.2860866,5.82441596 C44.4040199,5.70441887 44.5664199,5.64404058 44.7728998,5.64404058 L58.1596844,5.64404058 C58.3661644,5.64404058 58.5285644,5.70441887 58.6468844,5.82441596 C58.7648177,5.94441306 58.823591,6.10959893 58.823591,6.31997358 L58.823591,7.60424629 C58.823591,7.97942708 58.6464977,8.23461078 58.2926978,8.37017712 L54.7964583,9.60926104 C54.619365,9.66925959 54.5308183,9.75925741 54.5308183,9.87963424 C54.5297534,9.95263225 54.5675777,10.0208781 54.6305783,10.0596299 C54.697085,10.1048187 54.781765,10.1272232 54.8850049,10.1272232 L59.8416842,10.1272232 C60.0481642,10.1272232 60.2101775,10.1872217 60.3281108,10.3075986 C60.4464308,10.4275957 60.5052041,10.5927815 60.5052041,10.8031562 L60.5052041,11.5914915 C60.5052041,11.8018662 60.4464308,11.9670521 60.3281108,12.0870492 C60.2101775,12.207426 60.0481642,12.2674245 59.8416842,12.2674245 L53.8007918,12.2674245 C53.5057652,12.2674245 53.3580585,12.4174209 53.3580585,12.7177934 L53.3580585,15.0159656 C53.3433652,15.4515247 53.1956585,15.8080983 52.9157119,16.0860663 C52.6353786,16.3636545 52.2815787,16.5026385 51.8535387,16.5026385 L48.5343926,16.5026385 C48.3576859,16.5026385 48.2211926,16.4650444 48.1252993,16.3898564 C48.0323719,16.320691 47.9788741,16.2119407 47.9814593,16.0974584 C47.9814593,15.9470823 48.0402327,15.8043009 48.158166,15.6691143 L48.9546992,14.6779991 C49.0877125,14.4976237 49.1542192,14.3096536 49.1542192,14.1148482 L49.1542192,12.7177934 C49.1542192,12.4178006 49.0065125,12.2674245 48.7114859,12.2674245 L42.6709801,12.2674245 C42.4641135,12.2674245 42.3021002,12.207426 42.1837802,12.0870492 C42.0658469,11.9670521 42.0070736,11.8018662 42.0070736,11.5914915 L42.0070736,10.8031562 L42.0070736,10.8031562 Z M54.9066583,0.868080251 C54.9955916,0.477709954 55.2388049,0.282524806 55.6370715,0.282524806 L58.4914444,0.282524806 C58.683231,0.282524806 58.830551,0.327713585 58.933791,0.417711407 C59.037031,0.507709228 59.0884576,0.635301076 59.0884576,0.80048695 C59.0884576,0.905674277 59.0814976,0.980862331 59.0668043,1.02605111 L58.9562177,1.49920421 C58.9390155,1.5421813 58.931369,1.58827382 58.933791,1.63439081 C58.933791,1.874385 59.0668043,1.99476184 59.3320576,1.99476184 L59.4209909,1.99476184 C59.6270842,1.99476184 59.7894842,2.05476038 59.9074175,2.17475748 C60.0253508,2.29513431 60.0845108,2.46032019 60.0845108,2.6703151 L60.0845108,4.31495883 C60.0845108,4.52533349 60.0253508,4.69051936 59.9074175,4.81051646 C59.7894842,4.93089329 59.6270842,4.99089184 59.4206043,4.99089184 L56.1238848,4.99089184 C55.9174048,4.99089184 55.7550048,4.95329781 55.6366848,4.87810976 C55.5240492,4.81219101 55.4564682,4.69165033 55.4599782,4.56292751 C55.4599782,4.2773648 55.3122715,4.13496319 55.0172449,4.13496319 L47.4942594,4.13496319 C47.1992328,4.13496319 47.0515261,4.19496174 47.0515261,4.31495883 C47.0515261,4.52533349 46.9927528,4.69051936 46.8744328,4.81051646 C46.7564995,4.93089329 46.5944862,4.99089184 46.3876196,4.99089184 L43.0909001,4.99089184 C42.8844201,4.99089184 42.7220201,4.93089329 42.6037002,4.81051646 C42.4861535,4.69051936 42.4269935,4.52533349 42.4269935,4.31495883 L42.4269935,2.67069484 C42.4269935,2.46032019 42.4822868,2.29475457 42.5932602,2.17475748 C42.7034601,2.05476038 42.8623801,1.99476184 43.0688601,1.99476184 L43.2014867,1.99476184 C43.3488067,1.99476184 43.4559134,1.94957306 43.52242,1.85957524 C43.58854,1.76919768 43.6074867,1.64920058 43.5777133,1.49882447 L43.4671267,1.02605111 C43.450805,0.951966121 43.4432793,0.876273315 43.4447,0.80048695 C43.4447,0.454925696 43.6438333,0.282524806 44.0424866,0.282524806 L46.8744328,0.282524806 C47.2877794,0.282524806 47.5383394,0.477709954 47.6268861,0.868080251 L47.8260194,1.61160655 C47.899486,1.86716999 48.061886,1.99476184 48.3132193,1.99476184 L48.6445926,1.99476184 C48.7922992,1.99476184 48.8994059,1.94957306 48.9655259,1.85957524 C49.0320325,1.76919768 49.0505925,1.64920058 49.0208192,1.49882447 L48.9102325,1.02605111 C48.8955392,0.980862331 48.8881925,0.905674277 48.8881925,0.80048695 C48.8881925,0.635301076 48.9396192,0.508088966 49.0428592,0.417711407 C49.1464858,0.327713585 49.2938058,0.282524806 49.4855924,0.282524806 L52.3399653,0.282524806 C52.7382319,0.282524806 52.9818319,0.477709954 53.0703786,0.868080251 L53.2695119,1.61160655 C53.3429785,1.86716999 53.5053785,1.99476184 53.7563251,1.99476184 L54.2207117,1.99476184 C54.4716583,1.99476184 54.6336717,1.86716999 54.7079116,1.61160655 L54.9066583,0.868080251 Z M67.9539496,2.9900542 C67.9539496,2.74816132 67.8302163,2.62740475 67.5827497,2.62740475 L67.5607097,2.62740475 C67.2695497,2.62740475 67.1237764,2.77854033 67.1237764,3.08043176 L67.1237764,15.5400035 C67.1237764,15.7515174 67.0657764,15.9178425 66.9490031,16.0385991 C66.8326165,16.1593556 66.6725365,16.2197339 66.4683765,16.2197339 L64.9178434,16.2197339 C64.7136834,16.2197339 64.5536035,16.1593556 64.4372168,16.0385991 C64.3208302,15.9178425 64.2624435,15.7515174 64.2624435,15.5400035 L64.2624435,1.08718887 C64.2624435,0.875675004 64.3204435,0.709349916 64.4372168,0.588593346 C64.5536035,0.467836776 64.7136834,0.40745849 64.9178434,0.40745849 L69.963456,0.40745849 C70.1672293,0.40745849 70.3273093,0.467836776 70.4440826,0.588593346 C70.5604692,0.709349916 70.6188559,0.875675004 70.6188559,1.08718887 L70.6188559,2.60462049 L70.2035759,5.52708139 C70.1907795,5.63614878 70.1835527,5.7457771 70.1819226,5.85555445 C70.1819226,5.93871699 70.1892693,5.98770315 70.2035759,6.00289265 L70.2472693,6.00289265 C70.6552025,6.00289265 70.8810158,6.22200127 70.9247092,6.65983877 L70.9900558,7.54348827 C71.0190702,7.92094748 71.0264025,8.19283964 71.0117091,8.35878499 L70.6625492,13.0933539 C70.6331625,13.5315712 70.4073492,13.7503 69.9851093,13.7503 L68.2377629,13.7503 C68.0339896,13.7503 67.8739096,13.6899217 67.7571363,13.5691652 C67.6411363,13.4484086 67.582363,13.2824633 67.582363,13.0709494 L67.582363,12.5043808 C67.582363,12.2932467 67.6117497,12.1269216 67.6697497,12.006165 C67.7281363,11.8854085 67.8081763,11.8250302 67.9102563,11.8250302 C68.1140296,11.8250302 68.2304162,11.6814894 68.2598029,11.3944077 L68.4782695,8.42675802 L68.4782695,8.35878499 C68.4782695,8.08689283 68.3835362,7.95094676 68.1940696,7.95094676 C67.9902963,7.95094676 67.8302163,7.89056847 67.713443,7.7698119 C67.597443,7.64905533 67.5386697,7.48310998 67.5386697,7.27159612 L67.5386697,6.00289265 L67.9539496,3.10321601 L67.9539496,2.9900542 L67.9539496,2.9900542 Z M82.0645741,15.5403833 C82.0645741,15.7515174 82.0065741,15.9178425 81.8898008,16.0385991 C81.7730275,16.1593556 81.6129475,16.2197339 81.4091742,16.2197339 L78.0888681,16.2197339 C77.6519348,16.2197339 77.4338548,15.9930306 77.4338548,15.5400035 L77.4118148,10.6922728 C77.4118148,10.3900016 77.2664282,10.2392458 76.9748816,10.2392458 L76.647375,10.2392458 C76.3999083,10.2392458 76.2398283,10.3675971 76.1667484,10.6242998 L74.6815619,15.6535451 C74.5794819,16.0310043 74.3320153,16.2197339 73.939162,16.2197339 L72.1477356,16.2197339 C71.958269,16.2197339 71.8128824,16.1741654 71.7108024,16.0837878 C71.6091091,15.9930306 71.5580691,15.8646792 71.5580691,15.6987339 C71.5580691,15.6531654 71.5723757,15.5703826 71.6017624,15.449626 L72.9779088,10.7598661 C72.9922155,10.7298668 72.9995622,10.6770833 72.9995622,10.6015155 C73.0027804,10.5033709 72.9630954,10.4085621 72.8905222,10.3410155 C72.8174422,10.2730424 72.7230956,10.2392458 72.6063222,10.2392458 L71.9950023,10.2392458 C71.7908424,10.2392458 71.6307624,10.1784878 71.5143757,10.0577312 C71.3976024,9.93697463 71.3396024,9.77102928 71.3396024,9.55951541 L71.3396024,8.76662321 C71.3396024,8.55510935 71.3976024,8.389164 71.5143757,8.26840743 C71.6307624,8.14727112 71.7908424,8.08689283 71.9950023,8.08689283 L81.4308276,8.08689283 C81.6349875,8.08689283 81.7950675,8.14765086 81.9114541,8.26840743 C82.0282275,8.389164 82.0862275,8.55510935 82.0862275,8.76662321 L82.0862275,9.55951541 C82.0862275,9.77102928 82.0282275,9.93697463 81.9114541,10.0577312 C81.7950675,10.1788675 81.6349875,10.2392458 81.4308276,10.2392458 L80.9285476,10.2392458 C80.6373877,10.2392458 80.4916144,10.3900016 80.4916144,10.6922728 L80.5136544,13.2520842 C80.5136544,13.5539757 80.550001,13.7051113 80.6226943,13.7051113 C80.6957743,13.7051113 80.8048143,13.6219487 80.9505876,13.4560034 L81.2560542,13.1389224 C81.4165209,12.9725973 81.5619075,12.8898145 81.6929875,12.8898145 C81.8097608,12.8898145 81.9006275,12.9425981 81.9659741,13.0481651 C82.0317075,13.1541119 82.0645741,13.297273 82.0645741,13.4787876 L82.0645741,15.5400035 L82.0645741,15.5403833 Z M79.5744412,4.55305433 C79.3706679,4.55305433 79.2102012,4.50368844 79.0938146,4.40571613 C78.9774279,4.30774382 78.9190413,4.17559512 78.9190413,4.00927003 L78.9190413,3.91889247 C78.9190413,3.61662131 78.773268,3.46548573 78.482108,3.46548573 L74.9874152,3.46548573 C74.6962553,3.46548573 74.5504819,3.6014318 74.5504819,3.87332395 C74.5504819,4.08483782 74.492482,4.25116291 74.3757086,4.37191948 C74.259322,4.49267605 74.0988553,4.55305433 73.895082,4.55305433 L71.973349,4.55305433 C71.769189,4.55305433 71.6091091,4.49229631 71.4923357,4.37191948 C71.3759491,4.25116291 71.3175624,4.08483782 71.3175624,3.87332395 L71.3175624,2.01602714 C71.3175624,1.80489301 71.3759491,1.63856793 71.4923357,1.51781136 C71.6091091,1.39705479 71.769189,1.3366765 71.9729623,1.3366765 L74.2009353,1.3366765 C74.3320153,1.3366765 74.4375753,1.31389224 74.5180019,1.26832373 C74.5976553,1.22313495 74.6378686,1.16275666 74.6378686,1.08756861 L74.6378686,0.838080977 L74.6158286,0.838080977 C74.4557486,0.672135627 74.3757086,0.521000045 74.3757086,0.385053969 C74.3757086,0.264297399 74.4267486,0.169742726 74.5284419,0.101769688 C74.6305219,0.0337966502 74.7689486,0 74.9437219,0 L77.5428948,0 C77.9798281,0 78.1982947,0.21910862 78.1982947,0.656946122 L78.1982947,0.883649494 C78.1982947,1.18554092 78.3436814,1.3366765 78.635228,1.3366765 L81.4091742,1.3366765 C81.6129475,1.3366765 81.7730275,1.39705479 81.8898008,1.51781136 C82.0061875,1.63856793 82.0645741,1.80489301 82.0645741,2.01602714 L82.0645741,3.87370369 C82.0645741,4.08521756 82.0065741,4.25154265 81.8898008,4.37229922 C81.7730275,4.49305579 81.6129475,4.55343407 81.4091742,4.55343407 L79.5744412,4.55343407 L79.5744412,4.55305433 Z M72.1256956,5.7310005 C72.1256956,5.51948663 72.1840823,5.35354128 72.300469,5.23278471 C72.4172423,5.11164841 72.5773222,5.05127012 72.7810955,5.05127012 L80.6447343,5.05127012 C80.8485076,5.05127012 81.0085876,5.11202814 81.1253609,5.23278471 C81.2413609,5.35354128 81.3001342,5.51948663 81.3001342,5.7310005 L81.3001342,6.5238927 C81.3001342,6.73540656 81.2417476,6.90135191 81.1253609,7.02248822 C81.0085876,7.14324479 80.8485076,7.20362308 80.6447343,7.20362308 L72.7810955,7.20362308 C72.5773222,7.20362308 72.4172423,7.14286506 72.300469,7.02248822 C72.184469,6.90135191 72.1256956,6.73540656 72.1256956,6.5238927 L72.1256956,5.7310005 Z" id="形状"></path>
                </g>
                <g id="编组" transform="translate(33.913773, 22.538420)" fill="#10162F" fill-rule="nonzero">
                    <path d="M3.59445278,3.25748549 L3.59445278,0.0942709275 L2.40351963,0.0942709275 L2.40351963,3.20925881 C2.40351963,3.49026466 2.34087964,3.69380404 2.21521299,3.82063641 C2.08993301,3.94708905 1.91631971,4.01050523 1.69553307,4.01050523 C1.50954644,4.01050523 1.3397998,3.96797462 1.18667982,3.88291339 C1.01838533,3.78602848 0.864902824,3.66623542 0.730799888,3.52709922 L0,4.27290395 C0.180959972,4.47112699 0.410639937,4.64124946 0.689426561,4.78403081 C0.968213185,4.92681217 1.31350647,4.99820284 1.72569307,4.99820284 C2.00177303,4.99820284 2.25542632,4.9625075 2.48665295,4.89111683 C2.70556622,4.82647227 2.90746789,4.7156667 3.07825286,4.56644114 C3.24142617,4.42138136 3.36825282,4.24062625 3.4587328,4.02417579 C3.54921279,3.80772533 3.59406612,3.55254164 3.59406612,3.25748549 L3.59445278,3.25748549 Z M12.7259714,4.90402791 L11.4352783,3.18609481 C11.7724515,3.07179378 12.0454382,2.89179814 12.2542381,2.64686736 C12.4630381,2.40193658 12.5674381,2.08485565 12.5674381,1.69524483 L12.5674381,1.68157427 C12.5674381,1.18221927 12.3926648,0.79298819 12.0427315,0.513501285 C11.6931849,0.23401438 11.203665,0.0942709275 10.5753317,0.0942709275 L8.16059875,0.0942709275 L8.16059875,4.90402791 L9.32253191,4.90402791 L9.32253191,3.3645715 L10.2358384,3.3645715 L11.3676116,4.90364817 L12.7263581,4.90364817 L12.7259714,4.90402791 Z M11.3900383,1.75030679 C11.3900383,1.95650433 11.3134783,2.12131046 11.1599716,2.2447252 C11.006465,2.36851967 10.7864517,2.4304169 10.4995451,2.4304169 L9.32214524,2.4304169 L9.32214524,1.0493111 L10.4767317,1.0493111 C10.7636384,1.0493111 10.9875183,1.10665148 11.1483716,1.22133225 C11.3096116,1.33563328 11.3900383,1.5072747 11.3900383,1.73663623 L11.3900383,1.75030679 L11.3900383,1.75030679 Z M27.5886625,4.90402791 L25.3111961,9.59921895e-05 L24.2323963,9.59921895e-05 L21.95493,4.90402791 L23.1470231,4.90402791 L23.6330631,3.81190245 L25.880756,3.81190245 L26.366796,4.90402791 L27.5890491,4.90402791 L27.5886625,4.90402791 Z M25.4627694,2.86597598 L24.0502763,2.86597598 L24.7563296,1.28702686 L25.4627694,2.86597598 Z M36.3319678,4.13505918 L35.5949812,3.45153142 C35.4068158,3.61488465 35.1982794,3.75409724 34.9743813,3.86582519 C34.7663547,3.96721514 34.5123147,4.01772025 34.2114881,4.01772025 C33.9983267,4.02023518 33.7869697,3.97910924 33.5908882,3.89696368 C33.4097284,3.82100076 33.2462022,3.70963015 33.1102616,3.56962983 C32.976011,3.4293584 32.87012,3.26531423 32.7982217,3.08622381 C32.7232083,2.90205106 32.685315,2.70648617 32.685315,2.49952916 L32.685315,2.4858586 C32.685315,2.27852185 32.7232083,2.08409617 32.7982217,1.90220184 C32.873235,1.72068725 32.978795,1.56043797 33.1141283,1.4225932 C33.2515678,1.28317863 33.4165709,1.17282176 33.5990082,1.09829725 C33.7930849,1.01874571 34.0015807,0.978698096 34.2118748,0.980578585 C34.4775147,0.980578585 34.7168614,1.029185 34.9299147,1.12563836 C35.1564252,1.23097758 35.3674996,1.36572374 35.5574746,1.52626158 L36.2944611,0.745900722 C36.1727918,0.634355922 36.0420507,0.532754915 35.9035412,0.442110608 C35.7595442,0.348203645 35.6058246,0.269538914 35.4449546,0.207432745 C35.266105,0.139282425 35.0809188,0.0884103386 34.8920213,0.055537688 C34.6699322,0.017046784 34.4447364,-0.0015103464 34.2192214,9.59921906e-05 C33.8132215,9.59921906e-05 33.4420216,0.0657906043 33.1063949,0.196800091 C32.785058,0.318921381 32.4912948,0.501878273 32.2418084,0.735268068 C32.0027403,0.960975632 31.811188,1.23063974 31.6780485,1.52891974 C31.5417637,1.83474356 31.4725957,2.16532873 31.4750485,2.49914942 L31.4750485,2.51281997 C31.4750485,2.85838123 31.5427152,3.18267717 31.6780485,3.48646729 C31.8133818,3.7902574 32.0013018,4.05341559 32.2418084,4.27670132 C32.4905697,4.50484639 32.781571,4.684027 33.0990483,4.80453664 C33.4296482,4.93364744 33.7880882,4.99820284 34.1739814,4.99820284 C34.4299547,4.99820284 34.660408,4.97845649 34.8661147,4.93934351 C35.2443794,4.87059579 35.6017752,4.7182788 35.9112745,4.49391125 C36.0604169,4.38475866 36.20104,4.26480691 36.3319678,4.13505918 L36.3319678,4.13505918 Z M45.7546463,4.90402791 L43.4764067,9.59921895e-05 L42.3983802,9.59921895e-05 L40.1201405,4.90402791 L41.3126204,4.90402791 L41.7982736,3.81190245 L44.0459666,3.81190245 L44.5320065,4.90402791 L45.7546463,4.90402791 L45.7546463,4.90402791 Z M43.6283667,2.86597598 L42.2162602,2.86597598 L42.9223134,1.28702686 L43.6283667,2.86597598 L43.6283667,2.86597598 Z M54.7891116,2.49914942 L54.7891116,2.48547886 C54.7891116,2.14637315 54.7210583,1.83157064 54.585725,1.54069161 C54.4506316,1.25030992 54.2542504,0.991434639 54.0095917,0.781216323 C53.7609651,0.566284817 53.4647785,0.397681304 53.1210319,0.276165258 C52.7768986,0.15502895 52.3991253,0.0942709275 51.9877121,0.0942709275 L49.9318057,0.0942709275 L49.9318057,4.90402791 L51.9877121,4.90402791 C52.3991253,4.90402791 52.7768986,4.84213067 53.1206452,4.7183362 C53.4647785,4.59454173 53.7609651,4.42517874 54.0095917,4.2098675 C54.5110937,3.77860417 54.795815,3.1537607 54.7891116,2.49914942 L54.7891116,2.49914942 Z M53.5765251,2.51281997 C53.5765251,2.72813122 53.5378585,2.92293663 53.4597518,3.09685647 C53.3841158,3.26788291 53.2740273,3.42211253 53.1361119,3.55026321 C52.9920894,3.68206697 52.8215007,3.78271539 52.6353786,3.8456991 C52.4271589,3.91650712 52.2080472,3.95145065 51.9877121,3.94898774 L51.0914189,3.94898774 L51.0914189,1.0493111 L51.9877121,1.0493111 C52.2235787,1.0493111 52.4393387,1.08500644 52.6353786,1.15563764 C52.8310319,1.22702832 52.9980719,1.32651958 53.1361119,1.4548709 C53.2741519,1.58322222 53.3820318,1.73663623 53.4597518,1.91511292 C53.5374718,2.09358962 53.5765251,2.28839503 53.5765251,2.49914942 L53.5765251,2.51281997 L53.5765251,2.51281997 Z M63.1434304,4.90402791 L63.1434304,3.96227855 L60.2345375,3.96227855 L60.2345375,2.9529359 L62.7606304,2.9529359 L62.7606304,2.01118655 L60.2345375,2.01118655 L60.2345375,1.03564054 L63.1051504,1.03564054 L63.1051504,0.0942709275 L59.0633243,0.0942709275 L59.0633243,4.90402791 L63.1434304,4.90402791 Z M72.8576555,4.90402791 L72.8576555,0.0942709275 L71.5905491,0.0942709275 L70.1861759,2.12814574 L68.7818028,0.0942709275 L67.5146963,0.0942709275 L67.5146963,4.90402791 L68.6669628,4.90402791 L68.6669628,1.78448317 L70.1556293,3.81835799 L70.1865626,3.81835799 L71.6899224,1.76397734 L71.6899224,4.90402791 L72.8576555,4.90402791 L72.8576555,4.90402791 Z M82.0862275,0.0942709275 L80.759961,0.0942709275 L79.4712012,2.02523684 L78.204868,0.0942709275 L76.8407083,0.0942709275 L78.8796013,3.00761812 L78.8796013,4.90402791 L80.0473344,4.90402791 L80.0473344,2.98711229 L82.0862275,0.0942709275 Z" id="形状"></path>
                </g>
            </g>
            <g id="编组-21" transform="translate(118.000000, 1.000000)">
                <circle id="椭圆形" stroke="#10162F" stroke-width="0.4" cx="2.5" cy="2.5" r="2.3"></circle>
                <path d="M1.808,3.968 L1.808,2.704 L2.616,2.704 L3.292,3.968 L3.756,3.968 L3.052,2.64 C3.45733333,2.50933333 3.66,2.25333333 3.66,1.872 C3.66,1.608 3.56666667,1.404 3.38,1.26 C3.19333333,1.116 2.94933333,1.044 2.648,1.044 L2.648,1.044 L1.4,1.044 L1.4,3.968 L1.808,3.968 Z M2.636,2.32 L1.808,2.32 L1.808,1.424 L2.636,1.424 C3.04133333,1.424 3.244,1.57333333 3.244,1.872 C3.244,2 3.19866667,2.104 3.108,2.184 C3.00133333,2.27466667 2.844,2.32 2.636,2.32 L2.636,2.32 Z" id="R" fill="#10162F" fill-rule="nonzero"></path>
            </g>
        </g>
    </g>
</svg>